<svg xmlns="http://www.w3.org/2000/svg" width="960" height="540" viewBox="0 0 960 540">
  <rect width="960" height="540" fill="#ECEFF1"/>
  <rect y="0" width="960" height="360" fill="#CFD8DC"/>
  <rect y="360" width="960" height="180" fill="#90A4AE"/>
  <rect x="80" y="300" width="280" height="80" fill="#6D4C41"/>
  <rect x="80" y="280" width="280" height="24" fill="#8D6E63"/>
  <g id="tools">
    <rect x="600" y="80" width="12" height="80" fill="#78909C"/>
    <circle cx="606" cy="70" r="18" fill="#546E7A"/>
    <rect x="640" y="100" width="70" height="10" fill="#FF8F00"/>
    <rect x="640" y="130" width="50" height="10" fill="#455A64"/>
    <rect x="720" y="90" width="14" height="90" fill="#5D4037"/>
    <rect x="760" y="110" width="60" height="8" fill="#90A4AE"/>
  </g>
  <rect x="500" y="200" width="200" height="12" fill="#8D6E63"/>
  <rect x="520" y="160" width="40" height="40" fill="#1565C0" opacity="0.5"/>
  <rect x="580" y="155" width="50" height="45" fill="#2E7D32" opacity="0.5"/>
  <rect x="100" y="80" width="120" height="60" rx="8" fill="#1565C0" opacity="0.25"/>
  <text x="160" y="118" text-anchor="middle" font-family="DejaVu Sans, Arial, sans-serif" font-size="14" fill="#0D47A1">PIPES</text>
  <rect x="820" y="220" width="100" height="140" fill="#B0BEC5"/>
  <rect x="840" y="240" width="40" height="50" fill="#81D4FA"/>
</svg>
