<svg xmlns="http://www.w3.org/2000/svg" width="280" height="480" viewBox="0 0 280 480">
  <g id="body">
    <ellipse cx="110" cy="448" rx="28" ry="10" fill="#3E2723"/>
    <ellipse cx="170" cy="448" rx="28" ry="10" fill="#3E2723"/>
    <rect x="92" y="300" width="36" height="150" rx="8" fill="#1565C0"/>
    <rect x="152" y="300" width="36" height="150" rx="8" fill="#1565C0"/>
    <rect x="78" y="170" width="124" height="140" rx="14" fill="#C62828"/>
    <line x1="100" y1="180" x2="100" y2="300" stroke="#B71C1C" stroke-width="4"/>
    <line x1="130" y1="180" x2="130" y2="300" stroke="#B71C1C" stroke-width="4"/>
    <line x1="160" y1="180" x2="160" y2="300" stroke="#B71C1C" stroke-width="4"/>
    <line x1="190" y1="180" x2="190" y2="300" stroke="#B71C1C" stroke-width="4"/>
  </g>
  <g id="arm_l">
    <rect x="48" y="180" width="32" height="110" rx="12" fill="#C62828"/>
    <circle cx="64" cy="295" r="16" fill="#FFCC80"/>
  </g>
  <g id="arm_r">
    <rect x="200" y="180" width="32" height="110" rx="12" fill="#C62828"/>
    <circle cx="216" cy="295" r="16" fill="#FFCC80"/>
  </g>
  <g id="head">
    <rect x="122" y="145" width="36" height="28" fill="#FFCC80"/>
    <ellipse cx="140" cy="105" rx="56" ry="58" fill="#FFE0B2"/>
    <ellipse cx="140" cy="68" rx="72" ry="14" fill="#5D4037"/>
    <rect x="100" y="40" width="80" height="32" rx="6" fill="#6D4C41"/>
    <ellipse cx="118" cy="100" rx="8" ry="10" fill="#263238"/>
    <ellipse cx="162" cy="100" rx="8" ry="10" fill="#263238"/>
    <path d="M140,108 L134,122 L146,122" fill="none" stroke="#E0A060" stroke-width="3"/>
  </g>
  <g id="mouth">
    <ellipse cx="140" cy="142" rx="14" ry="5" fill="#5D4037"/>
  </g>
</svg>
