<svg xmlns="http://www.w3.org/2000/svg" width="300" height="520" viewBox="0 0 300 520">
  <!-- Dad - unified soft style -->
  <ellipse cx="150" cy="505" rx="55" ry="12" fill="#00000022"/>
  <!-- Legs -->
  <rect x="110" y="320" width="35" height="165" rx="10" fill="#5D4037"/>
  <rect x="155" y="320" width="35" height="165" rx="10" fill="#5D4037"/>
  <!-- Boots -->
  <rect x="102" y="470" width="48" height="28" rx="6" fill="#3E2723"/>
  <rect x="150" y="470" width="48" height="28" rx="6" fill="#3E2723"/>
  <!-- Body - flannel -->
  <rect x="85" y="175" width="130" height="155" rx="14" fill="#C62828"/>
  <!-- Arms -->
  <rect x="45" y="185" width="45" height="120" rx="14" fill="#C62828"/>
  <rect x="210" y="185" width="45" height="120" rx="14" fill="#C62828"/>
  <!-- Hands -->
  <ellipse cx="67" cy="310" rx="18" ry="16" fill="#FFCC80"/>
  <ellipse cx="233" cy="310" rx="18" ry="16" fill="#FFCC80"/>
  <!-- Neck -->
  <rect x="125" y="150" width="50" height="30" fill="#FFCC80"/>
  <!-- Head -->
  <ellipse cx="150" cy="105" rx="55" ry="58" fill="#FFE0B2"/>
  <!-- Hair -->
  <path d="M98 95 Q105 45 150 40 Q195 45 202 95" fill="#FFF59D"/>
  <!-- Cowboy hat -->
  <ellipse cx="150" cy="55" rx="75" ry="18" fill="#6D4C41"/>
  <path d="M90 60 Q100 25 150 20 Q200 25 210 60" fill="#8D6E63"/>
  <!-- Face - simple soft -->
  <ellipse cx="130" cy="100" rx="7" ry="9" fill="#263238"/>
  <ellipse cx="170" cy="100" rx="7" ry="9" fill="#263238"/>
  <circle cx="132" cy="97" r="2" fill="#FFFFFF"/>
  <circle cx="172" cy="97" r="2" fill="#FFFFFF"/>
  <!-- Smile -->
  <path d="M130 130 Q150 148 170 130" fill="none" stroke="#5D4037" stroke-width="3.5" stroke-linecap="round"/>
</svg>