<svg xmlns="http://www.w3.org/2000/svg" width="280" height="500" viewBox="0 0 280 500">
  <!-- Mom - unified soft style -->
  <ellipse cx="140" cy="485" rx="50" ry="10" fill="#00000022"/>
  <!-- Legs -->
  <rect x="105" y="310" width="30" height="155" rx="10" fill="#5C6BC0"/>
  <rect x="145" y="310" width="30" height="155" rx="10" fill="#5C6BC0"/>
  <!-- Shoes -->
  <ellipse cx="120" cy="470" rx="22" ry="12" fill="#37474F"/>
  <ellipse cx="160" cy="470" rx="22" ry="12" fill="#37474F"/>
  <!-- Dress / body -->
  <path d="M90 180 Q80 310 100 310 L180 310 Q200 310 190 180 Z" fill="#7E57C2"/>
  <!-- Arms -->
  <rect x="50" y="185" width="40" height="110" rx="14" fill="#7E57C2"/>
  <rect x="190" y="185" width="40" height="110" rx="14" fill="#7E57C2"/>
  <!-- Hands -->
  <ellipse cx="70" cy="300" rx="16" ry="14" fill="#FFCC80"/>
  <ellipse cx="210" cy="300" rx="16" ry="14" fill="#FFCC80"/>
  <!-- Neck -->
  <rect x="120" y="150" width="40" height="35" fill="#FFCC80"/>
  <!-- Head -->
  <ellipse cx="140" cy="105" rx="48" ry="52" fill="#FFE0B2"/>
  <!-- Hair -->
  <path d="M95 95 Q100 40 140 35 Q180 40 185 95 Q180 130 140 125 Q100 130 95 95" fill="#5D4037"/>
  <!-- Face -->
  <ellipse cx="123" cy="100" rx="6.5" ry="8" fill="#263238"/>
  <ellipse cx="157" cy="100" rx="6.5" ry="8" fill="#263238"/>
  <circle cx="125" cy="97" r="2" fill="#FFFFFF"/>
  <circle cx="159" cy="97" r="2" fill="#FFFFFF"/>
  <!-- Soft smile -->
  <path d="M123 128 Q140 142 157 128" fill="none" stroke="#5D4037" stroke-width="3" stroke-linecap="round"/>
</svg>