<svg xmlns="http://www.w3.org/2000/svg" width="280" height="480" viewBox="0 0 280 480">
  <g id="body">
    <ellipse cx="110" cy="448" rx="26" ry="10" fill="#4E342E"/>
    <ellipse cx="170" cy="448" rx="26" ry="10" fill="#4E342E"/>
    <rect x="100" y="300" width="30" height="150" rx="8" fill="#5D4037"/>
    <rect x="150" y="300" width="30" height="150" rx="8" fill="#5D4037"/>
    <path d="M78,175 L202,175 L220,320 L60,320 Z" fill="#7B1FA2"/>
    <rect x="90" y="175" width="100" height="50" rx="8" fill="#9C27B0"/>
  </g>
  <g id="arm_l">
    <rect x="50" y="185" width="28" height="100" rx="12" fill="#9C27B0"/>
    <circle cx="64" cy="290" r="15" fill="#FFCC80"/>
  </g>
  <g id="arm_r">
    <rect x="202" y="185" width="28" height="100" rx="12" fill="#9C27B0"/>
    <circle cx="216" cy="290" r="15" fill="#FFCC80"/>
  </g>
  <g id="head">
    <rect x="122" y="148" width="36" height="28" fill="#FFCC80"/>
    <ellipse cx="140" cy="108" rx="54" ry="56" fill="#FFE0B2"/>
    <path d="M88,100 Q90,48 140,45 Q190,48 192,100 Q185,130 140,125 Q95,130 88,100" fill="#4E342E"/>
    <ellipse cx="118" cy="102" rx="7" ry="9" fill="#263238"/>
    <ellipse cx="162" cy="102" rx="7" ry="9" fill="#263238"/>
    <path d="M140,110 L135,122 L145,122" fill="none" stroke="#E0A060" stroke-width="3"/>
  </g>
  <g id="mouth">
    <ellipse cx="140" cy="145" rx="14" ry="5" fill="#5D4037"/>
  </g>
</svg>
